<mxfile host="app.diagrams.net" modified="2020-12-12T19:18:14.572Z" agent="5.0 (Windows NT 10.0; Win64; x64) AppleWebKit/537.36 (KHTML, like Gecko) Chrome/87.0.4280.88 Safari/537.36 Edg/87.0.664.60" etag="52XtozQPUw9k9LtmTHtV" version="14.0.1" type="github">
  <diagram id="R1tgREalNkJ8hB2_LcDE" name="Page-1">
    <mxGraphModel dx="1422" dy="756" grid="1" gridSize="10" guides="1" tooltips="1" connect="1" arrows="1" fold="1" page="1" pageScale="1" pageWidth="1169" pageHeight="827" math="0" shadow="0">
      <root>
        <mxCell id="0" />
        <mxCell id="1" parent="0" />
        <mxCell id="8DW-EZByXk-LPSscRqwO-6" style="edgeStyle=orthogonalEdgeStyle;rounded=0;orthogonalLoop=1;jettySize=auto;html=1;entryX=0.5;entryY=0;entryDx=0;entryDy=0;" parent="1" source="8DW-EZByXk-LPSscRqwO-1" target="8DW-EZByXk-LPSscRqwO-2" edge="1">
          <mxGeometry relative="1" as="geometry" />
        </mxCell>
        <mxCell id="8DW-EZByXk-LPSscRqwO-1" value="FPT UI&lt;br&gt;CBox" style="rounded=1;whiteSpace=wrap;html=1;" parent="1" vertex="1">
          <mxGeometry x="950" y="30" width="120" height="30" as="geometry" />
        </mxCell>
        <mxCell id="8DW-EZByXk-LPSscRqwO-8" style="edgeStyle=orthogonalEdgeStyle;rounded=0;orthogonalLoop=1;jettySize=auto;html=1;entryX=0.5;entryY=0;entryDx=0;entryDy=0;" parent="1" source="8DW-EZByXk-LPSscRqwO-2" target="8DW-EZByXk-LPSscRqwO-4" edge="1">
          <mxGeometry relative="1" as="geometry">
            <Array as="points">
              <mxPoint x="990" y="140" />
              <mxPoint x="910" y="140" />
            </Array>
          </mxGeometry>
        </mxCell>
        <mxCell id="8DW-EZByXk-LPSscRqwO-9" style="edgeStyle=orthogonalEdgeStyle;rounded=0;orthogonalLoop=1;jettySize=auto;html=1;entryX=0.5;entryY=0;entryDx=0;entryDy=0;" parent="1" source="8DW-EZByXk-LPSscRqwO-2" target="8DW-EZByXk-LPSscRqwO-3" edge="1">
          <mxGeometry relative="1" as="geometry">
            <Array as="points">
              <mxPoint x="1030" y="140" />
              <mxPoint x="1110" y="140" />
            </Array>
          </mxGeometry>
        </mxCell>
        <mxCell id="8DW-EZByXk-LPSscRqwO-2" value="FPT-API&lt;br&gt;libadapter" style="rounded=1;whiteSpace=wrap;html=1;" parent="1" vertex="1">
          <mxGeometry x="950" y="90" width="120" height="30" as="geometry" />
        </mxCell>
        <mxCell id="8DW-EZByXk-LPSscRqwO-15" style="edgeStyle=orthogonalEdgeStyle;rounded=0;orthogonalLoop=1;jettySize=auto;html=1;" parent="1" source="8DW-EZByXk-LPSscRqwO-3" target="8DW-EZByXk-LPSscRqwO-5" edge="1">
          <mxGeometry relative="1" as="geometry" />
        </mxCell>
        <mxCell id="8DW-EZByXk-LPSscRqwO-3" value="libcaplayer" style="rounded=1;whiteSpace=wrap;html=1;" parent="1" vertex="1">
          <mxGeometry x="1050" y="160" width="120" height="30" as="geometry" />
        </mxCell>
        <mxCell id="8DW-EZByXk-LPSscRqwO-12" style="edgeStyle=orthogonalEdgeStyle;rounded=0;orthogonalLoop=1;jettySize=auto;html=1;entryX=0.5;entryY=0;entryDx=0;entryDy=0;" parent="1" source="8DW-EZByXk-LPSscRqwO-4" target="8DW-EZByXk-LPSscRqwO-11" edge="1">
          <mxGeometry relative="1" as="geometry" />
        </mxCell>
        <mxCell id="8DW-EZByXk-LPSscRqwO-4" value="libRTMediaplayer" style="rounded=1;whiteSpace=wrap;html=1;" parent="1" vertex="1">
          <mxGeometry x="850" y="160" width="120" height="30" as="geometry" />
        </mxCell>
        <mxCell id="8DW-EZByXk-LPSscRqwO-18" style="edgeStyle=orthogonalEdgeStyle;rounded=0;orthogonalLoop=1;jettySize=auto;html=1;entryX=1;entryY=0.5;entryDx=0;entryDy=0;exitX=1;exitY=0.5;exitDx=0;exitDy=0;" parent="1" source="8DW-EZByXk-LPSscRqwO-5" target="8DW-EZByXk-LPSscRqwO-16" edge="1">
          <mxGeometry relative="1" as="geometry">
            <Array as="points">
              <mxPoint x="1250" y="250" />
              <mxPoint x="1250" y="330" />
            </Array>
          </mxGeometry>
        </mxCell>
        <mxCell id="8DW-EZByXk-LPSscRqwO-5" value="librtk_halPlayer_Glinux_FPT" style="rounded=1;whiteSpace=wrap;html=1;" parent="1" vertex="1">
          <mxGeometry x="1015" y="230" width="190" height="40" as="geometry" />
        </mxCell>
        <mxCell id="8DW-EZByXk-LPSscRqwO-11" value="DvdPlayer" style="rounded=1;whiteSpace=wrap;html=1;" parent="1" vertex="1">
          <mxGeometry x="850" y="230" width="120" height="40" as="geometry" />
        </mxCell>
        <mxCell id="8DW-EZByXk-LPSscRqwO-16" value="DVBPlayer" style="rounded=1;whiteSpace=wrap;html=1;" parent="1" vertex="1">
          <mxGeometry x="1030" y="310" width="160" height="40" as="geometry" />
        </mxCell>
        <mxCell id="8DW-EZByXk-LPSscRqwO-20" value="RPC" style="text;html=1;strokeColor=none;fillColor=none;align=center;verticalAlign=middle;whiteSpace=wrap;rounded=0;" parent="1" vertex="1">
          <mxGeometry x="1250" y="280" width="40" height="20" as="geometry" />
        </mxCell>
        <mxCell id="8DW-EZByXk-LPSscRqwO-21" value="clear stream" style="text;html=1;strokeColor=none;fillColor=none;align=center;verticalAlign=middle;whiteSpace=wrap;rounded=0;" parent="1" vertex="1">
          <mxGeometry x="860" y="110" width="90" height="20" as="geometry" />
        </mxCell>
        <mxCell id="8DW-EZByXk-LPSscRqwO-22" value="scramble stream" style="text;html=1;strokeColor=none;fillColor=none;align=center;verticalAlign=middle;whiteSpace=wrap;rounded=0;" parent="1" vertex="1">
          <mxGeometry x="1110" y="120" width="100" height="20" as="geometry" />
        </mxCell>
        <mxCell id="MQrcfU3nJtXrKOitSgDA-8" style="edgeStyle=orthogonalEdgeStyle;rounded=0;orthogonalLoop=1;jettySize=auto;html=1;entryX=0.5;entryY=0;entryDx=0;entryDy=0;fontSize=18;" edge="1" parent="1" source="MQrcfU3nJtXrKOitSgDA-1" target="MQrcfU3nJtXrKOitSgDA-2">
          <mxGeometry relative="1" as="geometry" />
        </mxCell>
        <mxCell id="MQrcfU3nJtXrKOitSgDA-1" value="FPT UI&lt;br style=&quot;font-size: 18px;&quot;&gt;CBox" style="rounded=1;whiteSpace=wrap;html=1;fontSize=18;" vertex="1" parent="1">
          <mxGeometry x="280" y="40" width="120" height="60" as="geometry" />
        </mxCell>
        <mxCell id="MQrcfU3nJtXrKOitSgDA-9" style="edgeStyle=orthogonalEdgeStyle;rounded=0;orthogonalLoop=1;jettySize=auto;html=1;exitX=0.25;exitY=1;exitDx=0;exitDy=0;fontSize=18;" edge="1" parent="1" source="MQrcfU3nJtXrKOitSgDA-2" target="MQrcfU3nJtXrKOitSgDA-3">
          <mxGeometry relative="1" as="geometry" />
        </mxCell>
        <mxCell id="MQrcfU3nJtXrKOitSgDA-11" style="edgeStyle=orthogonalEdgeStyle;rounded=0;orthogonalLoop=1;jettySize=auto;html=1;exitX=0.75;exitY=1;exitDx=0;exitDy=0;fontSize=18;" edge="1" parent="1" source="MQrcfU3nJtXrKOitSgDA-2" target="MQrcfU3nJtXrKOitSgDA-4">
          <mxGeometry relative="1" as="geometry" />
        </mxCell>
        <mxCell id="MQrcfU3nJtXrKOitSgDA-2" value="FPT-API&lt;br style=&quot;font-size: 18px;&quot;&gt;libadapter" style="rounded=1;whiteSpace=wrap;html=1;fontSize=18;" vertex="1" parent="1">
          <mxGeometry x="280" y="150" width="120" height="60" as="geometry" />
        </mxCell>
        <mxCell id="MQrcfU3nJtXrKOitSgDA-10" style="edgeStyle=orthogonalEdgeStyle;rounded=0;orthogonalLoop=1;jettySize=auto;html=1;entryX=0.5;entryY=0;entryDx=0;entryDy=0;fontSize=18;" edge="1" parent="1" source="MQrcfU3nJtXrKOitSgDA-3" target="MQrcfU3nJtXrKOitSgDA-7">
          <mxGeometry relative="1" as="geometry" />
        </mxCell>
        <mxCell id="MQrcfU3nJtXrKOitSgDA-3" value="libRTMediaplayer" style="rounded=1;whiteSpace=wrap;html=1;fontSize=18;" vertex="1" parent="1">
          <mxGeometry x="80" y="280" width="180" height="60" as="geometry" />
        </mxCell>
        <mxCell id="MQrcfU3nJtXrKOitSgDA-12" style="edgeStyle=orthogonalEdgeStyle;rounded=0;orthogonalLoop=1;jettySize=auto;html=1;entryX=0.5;entryY=0;entryDx=0;entryDy=0;fontSize=18;" edge="1" parent="1" source="MQrcfU3nJtXrKOitSgDA-4" target="MQrcfU3nJtXrKOitSgDA-6">
          <mxGeometry relative="1" as="geometry" />
        </mxCell>
        <mxCell id="MQrcfU3nJtXrKOitSgDA-4" value="libcaplayer" style="rounded=1;whiteSpace=wrap;html=1;fontSize=18;" vertex="1" parent="1">
          <mxGeometry x="440" y="280" width="180" height="60" as="geometry" />
        </mxCell>
        <mxCell id="MQrcfU3nJtXrKOitSgDA-15" style="edgeStyle=orthogonalEdgeStyle;rounded=0;orthogonalLoop=1;jettySize=auto;html=1;entryX=1;entryY=0.5;entryDx=0;entryDy=0;fontSize=18;exitX=1;exitY=0.5;exitDx=0;exitDy=0;" edge="1" parent="1" source="MQrcfU3nJtXrKOitSgDA-6" target="MQrcfU3nJtXrKOitSgDA-13">
          <mxGeometry relative="1" as="geometry">
            <Array as="points">
              <mxPoint x="720" y="430" />
              <mxPoint x="720" y="550" />
            </Array>
          </mxGeometry>
        </mxCell>
        <mxCell id="MQrcfU3nJtXrKOitSgDA-6" value="librtk_halPlayer_Glinux_FPT" style="rounded=1;whiteSpace=wrap;html=1;fontSize=18;" vertex="1" parent="1">
          <mxGeometry x="395" y="400" width="270" height="60" as="geometry" />
        </mxCell>
        <mxCell id="MQrcfU3nJtXrKOitSgDA-7" value="DvdPlayer" style="rounded=1;whiteSpace=wrap;html=1;fontSize=18;" vertex="1" parent="1">
          <mxGeometry x="80" y="400" width="180" height="60" as="geometry" />
        </mxCell>
        <mxCell id="MQrcfU3nJtXrKOitSgDA-13" value="DVBPlayer" style="rounded=1;whiteSpace=wrap;html=1;fontSize=18;" vertex="1" parent="1">
          <mxGeometry x="440" y="520" width="180" height="60" as="geometry" />
        </mxCell>
        <mxCell id="MQrcfU3nJtXrKOitSgDA-16" value="clear stream" style="text;html=1;strokeColor=none;fillColor=none;align=center;verticalAlign=middle;whiteSpace=wrap;rounded=0;fontSize=18;" vertex="1" parent="1">
          <mxGeometry x="80" y="210" width="130" height="30" as="geometry" />
        </mxCell>
        <mxCell id="MQrcfU3nJtXrKOitSgDA-17" value="scramble stream" style="text;html=1;strokeColor=none;fillColor=none;align=center;verticalAlign=middle;whiteSpace=wrap;rounded=0;fontSize=18;" vertex="1" parent="1">
          <mxGeometry x="457.5" y="210" width="145" height="30" as="geometry" />
        </mxCell>
      </root>
    </mxGraphModel>
  </diagram>
</mxfile>
